<svg width="28" height="25" viewBox="0 0 28 25" fill="none" xmlns="http://www.w3.org/2000/svg">
<path d="M27.5999 20.5112L16.6686 1.5275C16.3955 1.0624 16.0055 0.676772 15.5374 0.408824C15.0693 0.140876 14.5393 -8.39233e-05 13.9999 -8.39233e-05C13.4605 -8.39233e-05 12.9305 0.140876 12.4624 0.408824C11.9943 0.676772 11.6043 1.0624 11.3311 1.5275L0.399876 20.5112C0.137046 20.9611 -0.00146484 21.4727 -0.00146484 21.9937C-0.00146484 22.5148 0.137046 23.0264 0.399876 23.4762C0.669539 23.9442 1.05884 24.3319 1.52783 24.5997C1.99682 24.8674 2.52861 25.0056 3.06863 25H24.9311C25.4707 25.0052 26.002 24.8668 26.4705 24.599C26.939 24.3313 27.3279 23.9438 27.5974 23.4762C27.8606 23.0266 27.9995 22.5151 28 21.9941C28.0004 21.4731 27.8623 20.9613 27.5999 20.5112ZM25.8661 22.475C25.7708 22.6376 25.634 22.7718 25.4697 22.8641C25.3054 22.9564 25.1195 23.0033 24.9311 23H3.06863C2.88022 23.0033 2.69434 22.9564 2.53004 22.8641C2.36574 22.7718 2.22892 22.6376 2.13363 22.475C2.04731 22.3289 2.00177 22.1622 2.00177 21.9925C2.00177 21.8228 2.04731 21.6561 2.13363 21.51L13.0649 2.52625C13.1621 2.36446 13.2995 2.23059 13.4638 2.13765C13.6281 2.04471 13.8136 1.99587 14.0024 1.99587C14.1911 1.99587 14.3767 2.04471 14.5409 2.13765C14.7052 2.23059 14.8427 2.36446 14.9399 2.52625L25.8711 21.51C25.9567 21.6566 26.0014 21.8234 26.0005 21.9932C25.9996 22.1629 25.9532 22.3293 25.8661 22.475ZM12.9999 15V10C12.9999 9.73478 13.1052 9.48043 13.2928 9.29289C13.4803 9.10536 13.7347 9 13.9999 9C14.2651 9 14.5194 9.10536 14.707 9.29289C14.8945 9.48043 14.9999 9.73478 14.9999 10V15C14.9999 15.2652 14.8945 15.5196 14.707 15.7071C14.5194 15.8946 14.2651 16 13.9999 16C13.7347 16 13.4803 15.8946 13.2928 15.7071C13.1052 15.5196 12.9999 15.2652 12.9999 15ZM15.4999 19.5C15.4999 19.7967 15.4119 20.0867 15.2471 20.3334C15.0823 20.58 14.848 20.7723 14.5739 20.8858C14.2998 20.9993 13.9982 21.0291 13.7072 20.9712C13.4163 20.9133 13.149 20.7704 12.9392 20.5607C12.7294 20.3509 12.5866 20.0836 12.5287 19.7926C12.4708 19.5017 12.5005 19.2001 12.6141 18.926C12.7276 18.6519 12.9198 18.4176 13.1665 18.2528C13.4132 18.088 13.7032 18 13.9999 18C14.3977 18 14.7792 18.158 15.0605 18.4393C15.3418 18.7206 15.4999 19.1022 15.4999 19.5Z" fill="#DF184F"/>
</svg>
